<svg preserveAspectRatio="none" width="100%" height="100%" overflow="visible" style="display: block;" viewBox="0 0 186 38" fill="none" xmlns="http://www.w3.org/2000/svg">
<g id="Logo">
<g id="Union">
<path fill-rule="evenodd" clip-rule="evenodd" d="M32.6676 0C35.661 1.28561e-05 38.0877 2.42112 38.0877 5.40769V32.5923C38.0877 35.5789 35.661 38 32.6676 38H5.42018C2.4267 38 0 35.5789 0 32.5923V5.40769C6.64605e-06 2.42111 2.4267 0 5.42018 0H32.6676ZM27.4023 14.9758C25.7721 13.442 23.4963 13.4699 21.3758 13.4958C21.1281 13.4989 20.8825 13.5019 20.6403 13.5023H18.3192V27.8179H20.5606L20.4307 15.391C20.4305 15.3859 20.4025 14.2841 20.5606 14.1605C20.9429 13.8798 21.6654 13.8893 22.2173 13.8967C22.3396 13.8983 22.4537 13.8998 22.5537 13.898C23.5974 13.8943 24.6391 14.2289 25.347 15.0074C26.7711 16.5735 26.7144 20.0163 25.1535 21.4565C23.9872 22.5326 22.6225 22.6936 21.0847 22.1798V22.5999C21.0847 22.6927 21.1468 22.7741 21.2365 22.799C21.7365 22.9377 21.958 22.9991 22.5505 22.9849C25.5838 22.9127 28.7293 21.2678 28.6159 17.8595C28.5798 16.7712 28.2086 15.7415 27.4023 14.9758ZM9.52193 24.1315H11.6523V17.6904C11.9779 17.6835 12.3036 17.6817 12.6293 17.6849C13.1828 17.6874 16.5922 17.6897 17.4893 17.6902C17.6097 17.6903 17.7054 17.593 17.7054 17.4729C17.7054 17.353 17.6095 17.2558 17.4894 17.2556C16.5694 17.2542 12.9996 17.2493 12.4219 17.2559L12.4043 17.2561C12.1856 17.2586 11.8572 17.2623 11.6515 17.2491L11.653 13.2039L11.6611 11.8963L11.6619 11.8114C11.6641 11.5649 11.6663 11.3221 11.6875 11.0735C11.7246 10.6409 11.9745 10.5516 12.379 10.5495C13.2896 10.5447 17.3402 10.5325 18.6189 10.5411C18.7322 10.5419 18.8237 10.4506 18.8237 10.3376C18.8237 10.2256 18.7327 10.1348 18.6205 10.1348L9.52193 10.1333V24.1315Z" fill="var(--fill-0, #161C1C)"/>
<path fill-rule="evenodd" clip-rule="evenodd" d="M71.2694 12.0685C73.8722 12.0685 74.9567 13.6104 75.4989 14.6653H75.6616V12.2579H79.0778V27.1896C79.0778 30.9495 76.1767 32.7619 72.1912 32.7619C68.287 32.7619 65.8198 31.0307 65.5757 28.2716H69.019C69.2631 29.5429 70.4831 30.1651 72.2454 30.1651C74.306 30.1651 75.6616 29.2724 75.6616 27.1084V24.2952H75.4989C74.9567 25.3772 73.7908 26.7297 71.2423 26.7297C67.8532 26.7297 65.169 24.2681 65.169 19.4803C65.169 14.6383 67.8532 12.0685 71.2694 12.0685ZM72.1912 14.8818C69.8866 14.8818 68.6937 16.8564 68.6937 19.5344C68.6937 22.2394 69.9137 24.0247 72.1912 24.0247C74.4144 24.0247 75.6887 22.3476 75.6887 19.5344C75.6887 16.7482 74.4415 14.8818 72.1912 14.8818Z" fill="var(--fill-0, #161C1C)"/>
<path fill-rule="evenodd" clip-rule="evenodd" d="M111.262 12.0685C114.054 12.0685 117.28 13.2047 117.28 17.1269V26.9461H113.973V24.9173H113.864C113.214 26.1616 111.831 27.2437 109.526 27.2437C106.707 27.2437 104.592 25.7018 104.592 22.8074C104.592 19.5073 107.33 18.5335 110.069 18.3712C111.085 18.3036 113.2 18.1819 113.837 18.1548V16.9917C113.837 15.531 112.888 14.6924 111.18 14.6924C109.635 14.6924 108.686 15.3957 108.415 16.4507H105.08C105.324 13.9621 107.574 12.0685 111.262 12.0685ZM110.611 20.6705C108.957 20.8057 107.927 21.482 107.927 22.7804C107.927 24.0517 108.957 24.701 110.421 24.701C112.509 24.701 113.864 23.3214 113.864 21.6714V20.4541L110.611 20.6705Z" fill="var(--fill-0, #161C1C)"/>
<path fill-rule="evenodd" clip-rule="evenodd" d="M142.686 12.0685C146.292 12.0685 149.41 14.3137 149.41 19.4803V20.5623H139.134C139.175 23.0644 140.653 24.5387 142.903 24.5387C144.421 24.5387 145.452 23.8894 145.885 23.0238H149.274C148.651 25.5666 146.292 27.2437 142.876 27.2437C138.429 27.2437 135.718 24.2952 135.718 19.6967C135.718 15.1523 138.484 12.0685 142.686 12.0685ZM142.74 14.7465C140.653 14.7465 139.27 16.3289 139.161 18.2089H146.102C146.075 16.2072 144.747 14.7465 142.74 14.7465Z" fill="var(--fill-0, #161C1C)"/>
<path fill-rule="evenodd" clip-rule="evenodd" d="M179.981 12.0685C182.774 12.0685 186 13.2047 186 17.1269V26.9461H182.692V24.9173H182.584C181.933 26.1616 180.55 27.2437 178.246 27.2437C175.426 27.2437 173.311 25.7018 173.311 22.8074C173.311 19.5073 176.05 18.5335 178.788 18.3712C179.805 18.3036 181.92 18.1819 182.557 18.1548V16.9917C182.557 15.531 181.608 14.6924 179.9 14.6924C178.354 14.6924 177.405 15.3957 177.134 16.4507H173.799C174.043 13.9621 176.294 12.0685 179.981 12.0685ZM179.33 20.6705C177.676 20.8057 176.646 21.482 176.646 22.7804C176.646 24.0517 177.676 24.701 179.141 24.701C181.228 24.701 182.584 23.3214 182.584 21.6714V20.4541L179.33 20.6705Z" fill="var(--fill-0, #161C1C)"/>
<path fill-rule="evenodd" clip-rule="evenodd" d="M164.824 26.9461H161.435V24.6198H161.245C160.703 25.7018 159.564 27.2166 157.016 27.2166C153.545 27.2166 150.942 24.4575 150.942 19.6155C150.942 14.7195 153.627 12.0685 157.043 12.0685C159.645 12.0685 160.73 13.6104 161.245 14.6653H161.381V7.36183H164.824V26.9461ZM157.965 14.8818C155.66 14.8818 154.467 16.8564 154.467 19.5885C154.467 22.3746 155.687 24.3763 157.965 24.3763C160.188 24.3763 161.462 22.4558 161.462 19.5885C161.462 16.7482 160.215 14.8818 157.965 14.8818Z" fill="var(--fill-0, #161C1C)"/>
<path d="M57.2782 10.3103H48.2226V15.6662H56.4106V18.6147H48.2226V26.9461H44.698V7.36183H57.2782V10.3103Z" fill="var(--fill-0, #161C1C)"/>
<path d="M63.013 26.9461H59.5426V12.2579H63.013V26.9461Z" fill="var(--fill-0, #161C1C)"/>
<path d="M97.9351 12.0685C100.619 12.0686 102.517 13.7998 102.517 17.0728V26.9461H99.0738V17.6138C99.0738 15.7744 97.9622 14.9629 96.5524 14.9629C94.8443 14.9629 93.8682 16.1261 93.8682 17.7761V26.9461H90.5063V17.4786C90.5063 15.9638 89.476 14.9629 88.0119 14.9629C86.5207 14.9629 85.3007 16.1802 85.3006 18.0196V26.9461H81.8303V12.2579H85.138V14.7465H85.3278C85.9243 13.0694 87.4154 12.0685 89.3675 12.0685C91.3739 12.0685 92.7837 13.0694 93.3531 14.7465H93.5157C94.1664 13.1235 95.7932 12.0685 97.9351 12.0685Z" fill="var(--fill-0, #161C1C)"/>
<path fill-rule="evenodd" clip-rule="evenodd" d="M127.516 7.36183C132.017 7.36184 134.43 10.0939 134.43 13.8538C134.43 17.6138 131.99 20.3188 127.462 20.3188H123.666V26.9461H120.141V7.36183H127.516ZM123.666 17.4245H126.974C129.631 17.4245 130.824 15.9367 130.824 13.8538C130.824 11.7439 129.631 10.3103 126.974 10.3103H123.666V17.4245Z" fill="var(--fill-0, #161C1C)"/>
<path d="M171.237 26.9461H167.766V12.2579H171.237V26.9461Z" fill="var(--fill-0, #161C1C)"/>
<path d="M61.305 6.41507C62.4166 6.41508 63.3113 7.25363 63.3113 8.28153C63.3113 9.33647 62.4166 10.175 61.305 10.1751C60.2205 10.1751 59.2986 9.33648 59.2986 8.28153C59.2986 7.25362 60.2205 6.41507 61.305 6.41507Z" fill="var(--fill-0, #161C1C)"/>
<path d="M169.529 6.41507C170.64 6.41507 171.535 7.25362 171.535 8.28153C171.535 9.33648 170.64 10.1751 169.529 10.1751C168.444 10.1751 167.522 9.33648 167.522 8.28153C167.522 7.25363 168.444 6.41508 169.529 6.41507Z" fill="var(--fill-0, #161C1C)"/>
</g>
</g>
</svg>
